<svg width="21" height="19" viewBox="0 0 21 19" fill="none" xmlns="http://www.w3.org/2000/svg">
<path d="M18.1364 19H16.2273V14.25H18.1364M4.77273 19H2.86364V14.25H4.77273M21 1.9V10.45C21 10.9539 20.7989 11.4372 20.4408 11.7935C20.0828 12.1498 19.5972 12.35 19.0909 12.35H1.90909C1.40277 12.35 0.917184 12.1498 0.55916 11.7935C0.201136 11.4372 0 10.9539 0 10.45V1.9C0 1.39609 0.201136 0.912816 0.55916 0.556497C0.917184 0.200178 1.40277 0 1.90909 0H19.0909C19.5972 0 20.0828 0.200178 20.4408 0.556497C20.7989 0.912816 21 1.39609 21 1.9ZM19.0909 1.9H1.90909V10.45H19.0909M18.1364 3.8H13.3636V5.7H18.1364M16.2273 6.65H13.3636V8.55H16.2273M12.4091 8.55H2.86364L5.46955 5.092L7.37864 7.6855L8.07545 7.1725L6.87273 5.529L8.505 3.3725L12.4091 8.55Z" fill="white"/>
</svg>
