<svg width="40" height="39" viewBox="0 0 40 39" fill="none" xmlns="http://www.w3.org/2000/svg">
<mask id="mask0_409_31909" style="mask-type:alpha" maskUnits="userSpaceOnUse" x="0" y="0" width="40" height="39">
<rect x="0.492188" width="39" height="39" fill="#D9D9D9"/>
</mask>
<g mask="url(#mask0_409_31909)">
<path d="M19.9922 35.75C19.0984 35.75 18.3333 35.4318 17.6969 34.7953C17.0604 34.1589 16.7422 33.3937 16.7422 32.5H23.2422C23.2422 33.3937 22.924 34.1589 22.2875 34.7953C21.651 35.4318 20.8859 35.75 19.9922 35.75ZM13.4922 30.875V27.625H26.4922V30.875H13.4922ZM13.8984 26C12.0297 24.8896 10.5469 23.4 9.45 21.5312C8.35313 19.6625 7.80469 17.6313 7.80469 15.4375C7.80469 12.0521 8.98958 9.17448 11.3594 6.80469C13.7292 4.4349 16.6068 3.25 19.9922 3.25C23.3776 3.25 26.2552 4.4349 28.625 6.80469C30.9948 9.17448 32.1797 12.0521 32.1797 15.4375C32.1797 17.6313 31.6313 19.6625 30.5344 21.5312C29.4375 23.4 27.9547 24.8896 26.0859 26H13.8984ZM14.8734 22.75H25.1109C26.3297 21.8833 27.2708 20.8135 27.9344 19.5406C28.5979 18.2677 28.9297 16.9 28.9297 15.4375C28.9297 12.9458 28.063 10.8333 26.3297 9.1C24.5964 7.36667 22.4839 6.5 19.9922 6.5C17.5005 6.5 15.388 7.36667 13.6547 9.1C11.9214 10.8333 11.0547 12.9458 11.0547 15.4375C11.0547 16.9 11.3865 18.2677 12.05 19.5406C12.7135 20.8135 13.6547 21.8833 14.8734 22.75Z" fill="black"/>
</g>
</svg>
