<svg width="25" height="24" viewBox="0 0 25 24" fill="none" xmlns="http://www.w3.org/2000/svg">
<path d="M25 10.5066H19.7875L23.8375 6.72423L22.075 5.06652L16.25 10.5066H13.75V8.17181L19.575 2.73172L17.8 1.08568L13.75 4.86806V0H11.25V4.86806L7.2 1.08568L5.425 2.73172L11.25 8.17181V10.5066H8.75L2.925 5.06652L1.1625 6.72423L5.2125 10.5066H0V12.8414H5.2125L1.1625 16.6238L2.925 18.2815L8.75 12.8414H11.25V15.1762L5.425 20.6163L7.2 22.2623L11.25 18.48V23.348H13.75V18.48L17.8 22.2623L19.575 20.6163L13.75 15.1762V12.8414H16.25L22.075 18.2815L23.8375 16.6238L19.7875 12.8414H25V10.5066Z" fill="white"/>
</svg>
