<svg width="18" height="19" viewBox="0 0 18 19" fill="none" xmlns="http://www.w3.org/2000/svg">
<g clip-path="url(#clip0_1700_42687)">
<path d="M11.3024 9.08195L4.18604 7.82617V17.1053C4.18604 17.5289 4.52951 17.8728 4.9535 17.8728H17.2329C17.6565 17.8728 18.0003 17.5293 18.0003 17.1053V13.6867L11.3024 9.08195Z" fill="#185C37"/>
<path d="M11.3024 1.12695H4.9535C4.52986 1.12695 4.18604 1.47043 4.18604 1.89441V5.31301L11.3024 9.49906L15.0697 10.7548L18 9.49906V5.31301L11.3024 1.12695Z" fill="#21A366"/>
<path d="M4.18604 5.31445H11.3024V9.50051H4.18604V5.31445Z" fill="#107C41"/>
<path opacity="0.1" d="M9.27912 4.47656H4.18604V14.9415H9.27912C9.7024 14.9401 10.0452 14.5973 10.0466 14.1741V5.24367C10.0452 4.82039 9.7024 4.47797 9.27912 4.47656Z" fill="black"/>
<path opacity="0.2" d="M8.86076 4.89453H4.18604V15.3598H8.86076C9.28404 15.3584 9.62682 15.0157 9.62822 14.5924V5.66199C9.62646 5.23871 9.28369 4.89594 8.86076 4.89453Z" fill="black"/>
<path opacity="0.2" d="M8.86076 4.89453H4.18604V14.5224H8.86076C9.28404 14.521 9.62682 14.1782 9.62822 13.755V5.66199C9.62646 5.23871 9.28369 4.89594 8.86076 4.89453Z" fill="black"/>
<path opacity="0.2" d="M8.44205 4.89453H4.18604V14.5224H8.44205C8.86533 14.521 9.20811 14.1782 9.20951 13.755V5.66199C9.20775 5.23871 8.86533 4.89594 8.44205 4.89453Z" fill="black"/>
<path d="M0.767461 4.89453H8.44207C8.8657 4.89453 9.20953 5.23801 9.20953 5.66199V13.3366C9.20953 13.7602 8.86605 14.1041 8.44207 14.1041H0.767461C0.343476 14.1041 0 13.7606 0 13.3366V5.66199C0 5.23801 0.343476 4.89453 0.767461 4.89453Z" fill="url(#paint0_linear_1700_42687)"/>
<path d="M2.37646 11.9942L3.99049 9.49316L2.51146 7.00586H3.70115L4.50834 8.59668C4.58287 8.74785 4.63385 8.86 4.66162 8.93418H4.67217C4.72525 8.81359 4.78115 8.69652 4.83951 8.58297L5.70224 7.00691H6.79455L5.27791 9.47945L6.83287 11.9945H5.6706L4.73826 10.2487C4.69432 10.1745 4.65705 10.0964 4.62682 10.0156H4.6131C4.58568 10.0947 4.54947 10.1706 4.50517 10.2416L3.54541 11.9949L2.37646 11.9942Z" fill="white"/>
<path d="M17.2326 1.12695H11.3025V5.31301H18.0001V1.89441C18.0001 1.47043 17.6566 1.12695 17.2326 1.12695Z" fill="#33C481"/>
<path d="M11.3025 9.5H18.0001V13.6861H11.3025V9.5Z" fill="#107C41"/>
</g>
<defs>
<linearGradient id="paint0_linear_1700_42687" x1="1.59984" y1="4.29509" x2="7.60945" y2="14.7035" gradientUnits="userSpaceOnUse">
<stop stop-color="#18884F"/>
<stop offset="0.5" stop-color="#117E43"/>
<stop offset="1" stop-color="#0B6631"/>
</linearGradient>
<clipPath id="clip0_1700_42687">
<rect width="18" height="18" fill="white" transform="translate(0 0.5)"/>
</clipPath>
</defs>
</svg>
