<svg width="25" height="16" viewBox="0 0 25 16" fill="none" xmlns="http://www.w3.org/2000/svg">
<g clip-path="url(#clip0_1690_42296)">
<path d="M12.4876 10.3424C12.2749 10.3429 12.0625 10.3256 11.8528 10.2907C11.5231 10.2005 11.2157 10.0456 10.9495 9.83522C10.8884 9.78749 10.8315 9.73578 10.7745 9.68208C10.5472 9.46047 10.3672 9.19691 10.2449 8.9067C10.1227 8.61649 10.0606 8.30543 10.0624 7.99159C10.0635 7.35855 10.3193 6.75133 10.7745 6.3011C11.0012 6.07887 11.2708 5.90289 11.5677 5.78339C11.8646 5.66389 12.1828 5.60326 12.5038 5.60502C13.1514 5.60606 13.7726 5.85609 14.2332 6.3011C14.588 6.65028 14.8242 7.09776 14.9097 7.58274C14.9952 8.06773 14.926 8.5667 14.7113 9.01185C14.5204 9.42645 14.2061 9.77518 13.8094 10.0125C13.4128 10.2499 12.9521 10.3648 12.4876 10.3424ZM4.81545 14.4015C4.98107 14.5907 5.06561 14.8351 5.05145 15.0837C5.03576 15.3348 4.92217 15.5704 4.73407 15.742L4.70355 15.7679C4.50994 15.931 4.25881 16.0138 4.00368 15.9986C3.74837 15.9835 3.50873 15.8732 3.33433 15.6903L3.30178 15.6505C2.26906 14.5343 1.42872 13.2614 0.813577 11.8817C0.263042 10.6435 -0.0142556 9.3058 -0.000225405 7.95579C0.0303174 6.59896 0.351924 5.2635 0.943785 4.03584C1.60889 2.6664 2.49813 1.41222 3.57644 0.322728L3.60288 0.296873C3.78327 0.126585 4.02164 0.0274287 4.27224 0.0184393C4.40234 0.0140671 4.53202 0.0352208 4.65363 0.0806517C4.77523 0.126082 4.88629 0.194869 4.98024 0.282951L5.00262 0.306817C5.17826 0.481589 5.2806 0.714306 5.28949 0.959148C5.2938 1.08601 5.27208 1.21244 5.22561 1.33096C5.17914 1.44949 5.10885 1.55772 5.0189 1.64927L5.00466 1.66518C4.09513 2.59026 3.33994 3.64929 2.7667 4.80352C2.27651 5.7975 2.00944 6.88246 1.98342 7.98563C1.97175 9.08647 2.19703 10.1774 2.64463 11.1876C3.16821 12.3318 3.87186 13.3887 4.73 14.32C4.75148 14.3329 4.77129 14.3482 4.789 14.3657L4.81545 14.3936V14.4015ZM8.53046 11.4879C8.67719 11.6818 8.74466 11.9222 8.71967 12.1621C8.70718 12.2873 8.66926 12.4088 8.60812 12.5194C8.54698 12.6301 8.46386 12.7277 8.36363 12.8065L8.32497 12.8363C8.12639 12.9793 7.88066 13.0452 7.63527 13.0213C7.50688 13.0094 7.38223 12.9724 7.26867 12.9126C7.15511 12.8529 7.05494 12.7715 6.97406 12.6733L6.95575 12.6514C6.38426 11.9723 5.92376 11.2109 5.5906 10.3941C5.28068 9.62556 5.11859 8.8077 5.11249 7.98165C5.11001 7.16504 5.26532 6.35533 5.57025 5.59507C5.90288 4.77613 6.36566 4.01365 6.94151 3.33578C7.10554 3.1364 7.34388 3.00888 7.60409 2.98128C7.86431 2.95368 8.12508 3.02826 8.32904 3.18861C8.533 3.34896 8.66345 3.58194 8.69169 3.83631C8.71992 4.09068 8.64363 4.3456 8.47959 4.54498V4.55492C8.04644 5.06335 7.69643 5.63427 7.442 6.2474C6.9728 7.35601 6.9728 8.60132 7.442 9.70993C7.70342 10.3367 8.06008 10.9214 8.49994 11.4442L8.53453 11.4939L8.53046 11.4879ZM21.6713 15.6843C21.4954 15.8657 21.2552 15.9745 20.9999 15.9886C20.8705 15.9971 20.7406 15.9798 20.6182 15.9377C20.4958 15.8957 20.3834 15.8298 20.2879 15.744C20.1908 15.6596 20.1117 15.5573 20.0551 15.443C19.9985 15.3287 19.9656 15.2045 19.9583 15.0777C19.9511 14.9522 19.9696 14.8266 20.0125 14.7081C20.0555 14.5897 20.1221 14.4807 20.2085 14.3876L20.2207 14.3737C21.0995 13.431 21.818 12.3566 22.3488 11.1916C22.8067 10.1721 23.0376 9.06914 23.0263 7.95579C22.9997 6.85249 22.7319 5.76752 22.241 4.77369C21.665 3.61877 20.9048 2.56077 19.9888 1.63932L19.9644 1.61347C19.7941 1.42999 19.7036 1.18887 19.7121 0.941249C19.7222 0.688261 19.8306 0.448559 20.0152 0.271019L20.0417 0.247153C20.2294 0.080663 20.476 -0.00779647 20.7294 0.000539984C20.9882 0.0103945 21.2334 0.116376 21.415 0.296873L21.4394 0.320739C22.5098 1.40758 23.3939 2.656 24.0578 4.01794C24.647 5.24423 24.9671 6.57746 24.9977 7.93193C25.0115 9.2864 24.7342 10.6286 24.1839 11.8718C23.5793 13.2302 22.755 14.4846 21.7425 15.5869C21.7244 15.6212 21.7011 15.6527 21.6734 15.6803L21.6713 15.6843ZM17.9746 12.7389C17.8435 12.8692 17.6772 12.9603 17.4951 13.0018C17.313 13.0433 17.1226 13.0333 16.9461 12.9731C16.7696 12.9128 16.6142 12.8048 16.4981 12.6616C16.3819 12.5184 16.3098 12.3459 16.2901 12.1641C16.2763 12.0382 16.288 11.9108 16.3247 11.7893C16.3613 11.6678 16.4222 11.5546 16.5037 11.4561V11.4462C16.942 10.93 17.2967 10.3511 17.5555 9.72981C18.0207 8.61561 18.0207 7.36757 17.5555 6.25337V6.23746C17.3008 5.62875 16.9507 5.06246 16.5179 4.5589L16.4874 4.5231C16.3422 4.32931 16.2756 4.08986 16.3002 3.85088C16.3123 3.72561 16.35 3.60398 16.4112 3.49327C16.4723 3.38256 16.5557 3.28503 16.6563 3.20651L16.6827 3.18264C16.8842 3.0306 17.1374 2.95946 17.3907 2.98376C17.5191 2.9965 17.6437 3.03399 17.7572 3.09407C17.8707 3.15415 17.9709 3.23563 18.0519 3.33379L18.0662 3.35169C18.6386 4.02572 19.098 4.78427 19.4273 5.59905C19.7336 6.35899 19.8896 7.16883 19.8871 7.98563C19.8809 8.80974 19.7188 9.62563 19.409 10.3921C19.0724 11.2159 18.6078 11.984 18.0316 12.6693C18.0142 12.6893 17.9951 12.7079 17.9746 12.725V12.7389Z" fill="white"/>
</g>
<defs>
<clipPath id="clip0_1690_42296">
<rect width="25" height="16" fill="white"/>
</clipPath>
</defs>
</svg>
