<svg width="25" height="16" viewBox="0 0 25 16" fill="none" xmlns="http://www.w3.org/2000/svg">
<path fill-rule="evenodd" clip-rule="evenodd" d="M1.87581 0H23.1242C23.6212 0.00159416 24.0974 0.197877 24.4488 0.546006C24.8002 0.894135 24.9984 1.36584 25 1.85817V11.9491C24.9986 12.4337 24.8065 12.8986 24.4646 13.2452C24.1228 13.5918 23.658 13.7927 23.1689 13.8053V15.4176C23.1692 15.494 23.1543 15.5696 23.1249 15.6403C23.0956 15.711 23.0525 15.7752 22.9981 15.8293C22.9436 15.8834 22.8789 15.9263 22.8077 15.9556C22.7365 15.9849 22.6601 16 22.583 16H19.519L17.6676 13.8073H7.32422L5.47282 16H2.41292C2.25858 15.9989 2.11089 15.9376 2.00195 15.8293C1.893 15.721 1.83159 15.5745 1.83105 15.4216V13.8093C1.34204 13.7967 0.877245 13.5958 0.535357 13.2492C0.193469 12.9027 0.00142325 12.4377 0 11.9531L0 1.85817C0.0016093 1.36584 0.199756 0.894135 0.551191 0.546006C0.902626 0.197877 1.37881 0.00159416 1.87581 0ZM4.43319 7.57375C4.60098 7.57375 4.76501 7.62304 4.90453 7.71538C5.04404 7.80773 5.15278 7.93898 5.217 8.09255C5.28121 8.24611 5.29801 8.41509 5.26527 8.57811C5.23254 8.74114 5.15174 8.89088 5.03309 9.00842C4.91444 9.12595 4.76327 9.20599 4.5987 9.23842C4.43413 9.27085 4.26355 9.2542 4.10852 9.19059C3.9535 9.12699 3.821 9.01927 3.72778 8.88106C3.63456 8.74286 3.5848 8.58037 3.5848 8.41416C3.5848 8.30379 3.60674 8.19451 3.64938 8.09255C3.69201 7.99058 3.75451 7.89794 3.83329 7.8199C3.91207 7.74186 4.00559 7.67996 4.10852 7.63772C4.21145 7.59549 4.32178 7.57375 4.43319 7.57375ZM4.43319 4.5507C4.60098 4.5507 4.76501 4.59999 4.90453 4.69233C5.04404 4.78468 5.15278 4.91593 5.217 5.0695C5.28121 5.22306 5.29801 5.39204 5.26527 5.55506C5.23254 5.71809 5.15174 5.86783 5.03309 5.98537C4.91444 6.1029 4.76327 6.18294 4.5987 6.21537C4.43413 6.24779 4.26355 6.23115 4.10852 6.16754C3.9535 6.10393 3.821 5.99622 3.72778 5.85801C3.63456 5.71981 3.5848 5.55732 3.5848 5.39111C3.5848 5.16822 3.67418 4.95446 3.83329 4.79685C3.99239 4.63924 4.20818 4.5507 4.43319 4.5507ZM7.3527 5.12911H14.6016C14.7312 5.12964 14.8553 5.1807 14.947 5.27124C15.0388 5.36178 15.0909 5.48449 15.092 5.6128V8.19247C15.0909 8.32077 15.0388 8.44349 14.947 8.53403C14.8553 8.62456 14.7312 8.67563 14.6016 8.67616H7.3527C7.22337 8.67562 7.09948 8.62449 7.00803 8.5339C6.91657 8.44331 6.86496 8.32059 6.86442 8.19247V5.61481C6.86496 5.48669 6.91657 5.36397 7.00803 5.27338C7.09948 5.18279 7.22337 5.13166 7.3527 5.13112V5.12911ZM23.0062 3.94407L20.756 3.96423L19.9382 6.79985L21.0531 6.81194L19.8669 9.76042L22.9899 5.98766H21.6187L23.0021 3.94609L23.0062 3.94407ZM1.80868 10.5001V3.30722H16.8274C16.9414 3.30642 17.0544 3.32791 17.16 3.37044C17.2656 3.41298 17.3617 3.47573 17.4428 3.55511C17.5238 3.63449 17.5883 3.72893 17.6325 3.83302C17.6767 3.93711 17.6997 4.04882 17.7002 4.16173V9.64353C17.6991 9.87037 17.6077 10.0876 17.4458 10.248C17.2838 10.4084 17.0645 10.499 16.8355 10.5001H1.80868Z" fill="white"/>
</svg>
